<?xml version="1.0" standalone="no"?>
<!DOCTYPE svg PUBLIC "-//W3C//DTD SVG 20010904//EN" "http://www.w3.org/TR/2001/REC-SVG-20010904/DTD/svg10.dtd">
<svg version="1.0" xmlns="http://www.w3.org/2000/svg" width="480" height="480" viewBox="0 0 2048.000000 2048.000000"
    preserveAspectRatio="xMidYMid meet">

    <g transform="translate(0.000000,2048.000000) scale(0.100000,-0.100000)" fill="#000000" stroke="none">
        <path d="M10185 18833 c-27 -1 -135 -7 -240 -13 -1246 -70 -2534 -366 -3645
-840 -1537 -655 -2791 -1640 -4011 -3150 -687 -850 -1095 -1455 -1418 -2100
-336 -673 -499 -1222 -573 -1930 -20 -194 -17 -859 5 -1077 35 -337 92 -674
168 -978 287 -1148 803 -2161 1617 -3174 581 -722 1361 -1440 2133 -1963 222
-151 655 -419 864 -535 1397 -778 3092 -1299 4905 -1508 1065 -122 2200 -148
3150 -70 1736 143 3107 685 4049 1600 874 849 1485 2006 1886 3569 158 616
284 1261 419 2141 192 1248 242 2244 160 3175 -106 1217 -457 2273 -1038 3125
-371 543 -659 899 -1026 1265 -318 318 -584 543 -985 831 -49 36 -142 108
-206 161 -324 266 -772 536 -1169 703 -336 141 -825 275 -1190 325 -47 7 -155
29 -240 51 -921 228 -1771 353 -2660 389 -212 9 -830 11 -955 3z" fill="#32334C" />
    </g>
</svg>