<?xml version="1.0" standalone="no"?>
<!DOCTYPE svg PUBLIC "-//W3C//DTD SVG 20010904//EN" "http://www.w3.org/TR/2001/REC-SVG-20010904/DTD/svg10.dtd">
<svg version="1.0" xmlns="http://www.w3.org/2000/svg" width="480" height="480" viewBox="0 0 2048.000000 2048.000000"
    preserveAspectRatio="xMidYMid meet">

    <g transform="translate(0.000000,2048.000000) scale(0.100000,-0.100000)" fill="#000000" stroke="none">
        <path d="M10210 18833 c-961 -41 -1859 -184 -2740 -438 -1148 -330 -2224 -861
-3132 -1546 -400 -301 -743 -601 -1118 -978 -341 -342 -586 -616 -926 -1036
-655 -808 -1055 -1393 -1380 -2020 -379 -731 -574 -1404 -625 -2165 -14 -217
-6 -714 16 -930 89 -892 347 -1758 775 -2605 178 -353 334 -612 584 -975 655
-952 1552 -1843 2541 -2522 148 -101 582 -373 780 -488 187 -108 574 -308 795
-411 1505 -697 3196 -1108 5053 -1229 1504 -98 2808 -10 3827 256 1175 308
2081 831 2769 1599 803 897 1329 1995 1706 3561 163 675 365 1834 459 2634 60
509 85 883 93 1375 16 1087 -108 1982 -390 2810 -186 544 -462 1086 -761 1495
-35 47 -111 154 -171 238 -443 626 -1025 1209 -1686 1689 -85 61 -218 162
-295 225 -188 150 -264 204 -484 342 -544 342 -1123 555 -1805 666 -104 17
-239 44 -300 60 -267 71 -750 172 -1065 225 -722 119 -1446 177 -2165 173
-159 -1 -319 -3 -355 -5z" fill="#613CD2" fill-opacity="0.3" />
    </g>
</svg>