<?xml version="1.0" standalone="no"?>
<!DOCTYPE svg PUBLIC "-//W3C//DTD SVG 20010904//EN" "http://www.w3.org/TR/2001/REC-SVG-20010904/DTD/svg10.dtd">
<svg version="1.0" xmlns="http://www.w3.org/2000/svg" width="460" height="460" viewBox="0 0 2048.000000 2048.000000"
    preserveAspectRatio="xMidYMid meet">

    <g transform="translate(0.000000,2048.000000) scale(0.100000,-0.100000)" fill="#000000" stroke="none">
        <path d="M10445 19314 c-605 -61 -1077 -181 -1593 -402 -75 -33 -236 -92 -357
-132 -569 -187 -1132 -420 -1705 -706 -1345 -672 -2479 -1522 -3445 -2584
-1263 -1388 -2043 -2969 -2404 -4868 -113 -591 -200 -1300 -253 -2057 -19
-275 -16 -1060 5 -1311 56 -668 165 -1163 366 -1668 510 -1276 1588 -2441
3001 -3239 470 -266 1079 -528 1654 -713 817 -262 1619 -409 2543 -465 302
-18 1146 -6 1448 20 1446 127 2843 502 4305 1153 1178 526 2426 1272 3316
1984 758 606 1345 1253 1748 1928 655 1095 867 2322 655 3791 -121 838 -401
1784 -864 2920 -546 1338 -991 2223 -1510 3005 -524 789 -1122 1442 -1760
1922 -249 187 -494 343 -780 496 -212 114 -310 158 -727 326 -565 228 -1003
353 -1608 460 -158 28 -493 66 -725 81 -126 9 -300 25 -385 36 -129 18 -217
22 -520 24 -201 2 -383 1 -405 -1z" fill="#613CD2" fill-opacity="0.7" />
    </g>
</svg>