<?xml version="1.0" standalone="no"?>
<!DOCTYPE svg PUBLIC "-//W3C//DTD SVG 20010904//EN" "http://www.w3.org/TR/2001/REC-SVG-20010904/DTD/svg10.dtd">
<svg version="1.0" xmlns="http://www.w3.org/2000/svg" width="500.000000pt" height="500.000000pt"
    viewBox="0 0 500.000000 500.000000" preserveAspectRatio="xMidYMid meet">

    <g transform="translate(0.000000,500.000000) scale(0.100000,-0.100000)" fill="#6d6d6d" stroke="none">
        <path d="M1267 4385 c-108 -22 -107 -22 -107 -63 l0 -37 95 3 c177 6 353 -59
545 -203 150 -113 518 -484 953 -964 202 -222 367 -407 367 -410 0 -4 -26 -11
-59 -18 -204 -38 -386 -232 -452 -480 -32 -120 -30 -292 5 -399 33 -102 85
-183 167 -259 78 -72 166 -117 286 -147 85 -21 106 -22 608 -23 l520 0 3 36 3
36 -65 6 c-95 9 -142 38 -180 114 -14 29 -16 129 -16 1013 0 964 0 981 20
1020 30 59 89 94 169 100 l66 5 3 38 3 37 -397 0 -396 0 6 -31 c3 -17 6 -35 6
-40 0 -5 25 -9 55 -9 83 0 141 -34 176 -102 18 -36 19 -76 19 -1059 l0 -1021
-237 4 c-283 6 -318 15 -406 101 -87 87 -131 200 -143 372 -12 165 25 300 107
390 103 111 222 153 467 162 l153 6 -3 35 c-3 30 -8 37 -33 44 -17 4 -50 24
-73 44 -35 30 -573 622 -1049 1154 -250 280 -493 453 -738 525 -75 23 -114 28
-235 31 -99 2 -166 -1 -213 -11z m421 -56 c42 -11 126 -43 187 -73 191 -92
366 -240 619 -525 483 -542 956 -1060 999 -1091 l47 -35 -127 -6 c-216 -10
-348 -60 -450 -172 -86 -93 -123 -207 -123 -377 0 -128 19 -222 64 -315 61
-128 158 -208 284 -234 30 -6 156 -11 292 -11 l240 0 0 1023 c0 1098 1 1075
-50 1147 -13 18 -43 45 -68 61 l-46 29 249 0 248 0 -47 -32 c-58 -38 -92 -87
-106 -153 -7 -34 -10 -357 -8 -1005 3 -949 3 -955 24 -1000 23 -48 61 -88 109
-114 28 -15 -3 -16 -440 -13 -517 3 -520 3 -655 69 -86 41 -205 160 -243 242
-57 121 -73 289 -42 438 31 145 129 303 243 387 73 55 151 83 250 89 45 2 82
6 82 8 0 16 -848 933 -1034 1120 -238 238 -344 330 -469 408 -109 68 -294 136
-368 136 -15 0 -36 3 -46 8 -32 13 63 21 190 15 69 -2 151 -12 195 -24z" />
        <path d="M830 3575 c0 -10 10 -15 33 -15 90 0 172 -56 204 -138 17 -44 18
-105 18 -1017 l0 -971 -25 -48 c-36 -69 -94 -109 -170 -114 -51 -4 -60 -7 -60
-23 0 -18 14 -19 365 -19 358 0 365 0 365 20 0 17 -7 20 -50 20 -99 0 -178 69
-200 173 -7 35 -9 371 -8 1047 l3 995 255 0 255 0 65 -31 c82 -39 124 -75 166
-140 109 -170 126 -458 38 -634 -59 -117 -171 -200 -316 -235 -35 -9 -127 -18
-205 -22 -127 -5 -143 -8 -143 -23 0 -10 10 -20 23 -24 13 -3 45 -25 72 -48
40 -35 589 -640 1047 -1153 103 -115 147 -157 288 -277 139 -117 300 -206 455
-250 143 -40 504 -25 513 22 2 12 -14 15 -85 17 -210 3 -401 87 -628 277 -174
145 -491 475 -1010 1050 -99 110 -199 221 -222 247 l-42 46 62 11 c144 24 260
94 348 210 103 137 149 275 149 451 0 185 -45 305 -154 419 -70 74 -147 122
-255 160 l-76 27 -537 3 c-480 3 -538 1 -538 -13z" />
    </g>
</svg>